<svg id="Layer_1" data-name="Layer 1" xmlns="http://www.w3.org/2000/svg" viewBox="0 0 554.02 232.4"><defs><style>.cls-1{fill:#fff;}.cls-1,.cls-2{stroke:#231f20;stroke-miterlimit:10;stroke-width:5px;}.cls-2{fill:none;}</style></defs><circle class="cls-1" cx="533.52" cy="20.5" r="18"/><circle class="cls-1" cx="20.5" cy="20.5" r="18"/><line class="cls-2" x1="38.5" y1="20.5" x2="515.52" y2="20.5"/><polygon class="cls-2" points="493.51 152.5 450.51 128.5 450.51 69.5 493.51 93.5 493.51 152.5"/><line class="cls-2" x1="472.02" y1="81.5" x2="472.02" y2="20.5"/><circle class="cls-2" cx="394.77" cy="210.96" r="14.25"/><circle class="cls-2" cx="394.77" cy="210.96" r="1.21"/><line class="cls-2" x1="405.89" y1="202.07" x2="472.02" y2="140.5"/><rect class="cls-2" x="296.75" y="196.71" width="33.19" height="33.19"/><circle class="cls-2" cx="313.34" cy="213.31" r="1.66"/><line class="cls-2" x1="329.94" y1="213.31" x2="380.52" y2="210.96"/><circle class="cls-2" cx="241.04" cy="213.31" r="14.25"/><circle class="cls-2" cx="241.04" cy="213.31" r="1.21"/><line class="cls-2" x1="296.75" y1="212.18" x2="255.29" y2="213.31"/><polygon class="cls-2" points="153.02 102 200.72 114.24 215.78 171.28 168.08 159.05 153.02 102"/><line class="cls-2" x1="226.79" y1="213.31" x2="191.19" y2="164.98"/><circle class="cls-2" cx="184.4" cy="136.64" r="1.21"/><line class="cls-2" x1="178.43" y1="108.52" x2="176.24" y2="20.5"/></svg>